<svg viewBox="0 0 574.4 691.3" version="1.1" xmlns="http://www.w3.org/2000/svg" id="Layer_1">
  
  <defs>
    <style>
      .st0 {
        fill: none;
      }

      .st1 {
        font-family: Baskerville, Baskerville;
        font-size: 54.4px;
        letter-spacing: .2em;
      }

      .st1, .st2, .st3, .st4 {
        fill: #d6bb67;
      }

      .st2 {
        fill-rule: evenodd;
      }

      .st5 {
        fill: #ddbd67;
      }

      .st4 {
        font-family: BodoniXBook, BodoniX;
        font-size: 128px;
      }
    </style>
  </defs>
  <text transform="translate(6.2 604.4)" class="st4"><tspan y="0" x="0">LIBERTY</tspan></text>
  <text transform="translate(118.8 672.6)" class="st1"><tspan y="0" x="0">PERFUME</tspan></text>
  <g>
    <path d="M251.3,74.4c2.6-2,.5-6-2.5-5.1,1.9.5,3.8,1.4,2.5,5.1M272.9,66.5c2.2,0,6,1.3,8.2,3.3-1.9-3.2-3.8-3.4-8.2-3.3ZM264.9,58.7c-.4,0-.8-.2-1.1-.5-1.6-1-2.1-3-1.7-4.8.4-2.1,2-3.6,4-4.3.6-.2,1.3-.3,1.9-.4-1.2-.1-2.3,0-3.5.4-2,.7-3.6,2.2-4,4.3-.4,1.7.1,3.8,1.7,4.8.4.3.9.4,1.4.5.4,0,.9,0,1.3,0ZM266.3,43.3c6,.5,9.9,5.7,11.4,11.2.4-6.4-5.2-11.7-11.4-11.2ZM297.4,33.7c2.5-9.2.4-19.3-10.9-28.6,5.4,6.4,9.6,12.9,10.2,20.5.3,4.9-2,15.6-3.8,21,1.9-4.4,3.7-9.7,4.5-13ZM309.4,59.9c2.8.4,6.1-1.4,7.3-4.4.9-2.1.4-4.7-.6-6.7-1.4-2.6-3.7-4.4-6.5-5.2-1-.3-2.1-.4-3.1-.3.5,0,1,.1,1.5.3,2.8.8,5.1,2.6,6.5,5.2,1.1,2,1.5,4.6.6,6.7-1,2.4-3.3,4.1-5.7,4.4ZM293.6,76.6c1.4-4.2,4.2-7.7,8.2-9.9-4,.1-8.6,5.9-8.2,9.9ZM304.3,94.9c-5.4-.3-9.1-3.9-10.4-9-.7,6.7,5.8,10.5,10.4,9ZM342.4,99.4c-.3,0-.6,0-.8,0-8.5-1-13.9-7.7-15.2-15.2-1.7,8.4,8,15.7,16,15.3ZM345.5,87.9c-.4,0-.8-.2-1.1-.5-1.5-1-2-3-1.7-4.7.4-2.1,2-3.5,3.9-4.2.7-.2,1.5-.4,2.2-.5-1.3-.1-2.6,0-3.8.5-2,.6-3.5,2.1-3.9,4.2-.4,1.7.1,3.7,1.7,4.7.4.3.9.4,1.4.5.4,0,.9,0,1.3,0ZM228.8,88.9c2.7.4,5.9-1.4,7.1-4.3.8-2.1.4-4.5-.6-6.5-1.3-2.5-3.6-4.2-6.3-5-1-.3-2.1-.4-3.1-.3.5,0,1,.1,1.5.3,2.7.8,4.9,2.5,6.3,5,1,1.9,1.4,4.4.6,6.5-1,2.3-3.2,4-5.5,4.3ZM268.5,94.8c-7.7-.4-13.8-6.5-17.1-13.1,2.2,9.3,10,13.6,17.1,13.1ZM361.6,77.3c-.3-17.3,12.7-16.7,12.6-16.7-10.4,2.8-11.5,10.7-12.6,16.7ZM326.5,74.4c2.6-2,.5-6-2.5-5.1,1.9.5,3.8,1.4,2.5,5.1ZM302.7,102c2.1,2.1,4.3,4.2,6.4,6.2-2.1,2.2-4.3,4.4-6.4,6.6-2.1-2.1-4.3-4.2-6.4-6.3,2.1-2.2,4.3-4.4,6.4-6.6ZM317.4,102.4c1.8,1.7,3.6,3.4,5.4,5.1-1.8,1.9-3.6,3.9-5.4,5.8-1.8-1.7-3.6-3.4-5.5-5.2,1.8-1.9,3.6-3.8,5.5-5.7ZM330.2,102.4c1.5,1.4,3,2.7,4.5,4.1-1.5,1.6-3,3.3-4.5,4.9-1.5-1.4-3-2.7-4.5-4.1,1.5-1.6,3-3.2,4.5-4.9ZM341.9,102.1l3.5,3.1-3.5,4-3.5-3.1,3.5-3.9ZM271.7,102c-2.1,2.1-4.3,4.2-6.4,6.2,2.1,2.2,4.3,4.4,6.4,6.6,2.1-2.1,4.3-4.2,6.4-6.3-2.1-2.2-4.3-4.4-6.4-6.6ZM257,102.4c-1.8,1.7-3.6,3.4-5.4,5.1,1.8,1.9,3.6,3.9,5.4,5.8,1.8-1.7,3.6-3.4,5.5-5.2-1.8-1.9-3.6-3.8-5.5-5.7ZM244.2,102.4c-1.5,1.4-3,2.7-4.5,4.1,1.5,1.6,3,3.3,4.5,4.9,1.5-1.4,3-2.7,4.5-4.1-1.5-1.6-3-3.2-4.5-4.9ZM232.5,102.1l-3.5,3.1,3.5,4,3.5-3.1-3.5-3.9ZM287.2,101.2l7.4,7.4-7.4,7.4-7.4-7.4,7.4-7.4ZM287.2,58.8l.4-13.8.3-10.2,1.4-3.3,2-4.8-2-4.8-2-4.8-2,4.8-2,4.8,2,4.8,1.4,3.3.3,10.2.4,13.8ZM212.3,77.3c.3-17.3-12.7-16.7-12.6-16.7,10.2,3.2,11.5,10.1,12.6,16.7ZM279.5,81.5h-3.2c-1.6,0-2.9-1.3-2.9-2.9s1.3-2.9,2.9-2.9h2.8c-1.4-4.2-5-8.4-12-11.6,4.9-1.2,8.6-1.3,11.5-.6-1.7-9-5.5-16.3-11.9-14.2-3.8,1.2-3.5,5.8-1.2,6.1.4,0,.9,0,1.5-.3-1.2-5.3,5.9-3.6,3.8.9-3.1,6.5-12,4.9-14.6-1.4-2-4.9,1.1-12.2,8.2-14.2,2.2-.6,4.6-.5,6.9.3,4.6,1.6,9,6.3,10.4,14-1.1-19-18.8-27.5,5.6-54.6,24.4,27.1,6.8,35.6,5.6,54.6,1.4-7.6,5.8-12.4,10.4-14,2.3-.8,4.7-1,6.9-.3,7.1,2,10.2,9.3,8.2,14.2-2.6,6.3-11.5,7.9-14.6,1.4-2.1-4.5,5-6.2,3.8-.9.6.3,1.1.4,1.5.3,2.3-.3,2.6-4.9-1.2-6.1-6.5-2.1-10.3,5.3-11.9,14.2,2.8-.7,6.5-.7,11.4.6-7,3.2-10.7,7.4-12,11.6h2.8c1.6,0,2.9,1.3,2.9,2.9s-1.3,2.9-2.9,2.9h-3c1.6,14.9,19.7,13.1,26.9-3.5h-1.1c-1,0-1.8-.8-1.8-1.8h0c0-1,.8-1.8,1.8-1.8h1.1c-1.1-.9-1.8-2.2-1.8-3.7,0-2.6,2.1-4.7,4.7-4.7s4.7,2.1,4.7,4.7-.7,2.9-1.8,3.7h1.1c1,0,1.8.8,1.8,1.8h0c0,1-.8,1.8-1.8,1.8h-1.8c.9,4.2,2.3,8.6,4.7,12,2.6,3.7,6.3,5.7,10.1,6.1,6.7.8,11.8-3.8,13.3-8.9,1.6-5.7-2.2-10.3-7.9-8.4-3.7,1.2-3.4,5.6-1.2,5.9.4,0,.9,0,1.4-.3-1.2-5.2,5.7-3.6,3.7.8-3,6.3-11.7,4.8-14.2-1.4-1.9-4.8,1.1-11.9,8-13.9,6.1-1.7,12.1,2.7,15.4,7.4-.6-14.4,4.7-19.1,17.9-21.2l-38,75.1-29.3-5-23.8-4.5-24.7,5.6-28.9,3.9-37.5-75.1c13.2,2.1,18.5,6.7,17.9,21.2,3.3-4.8,9.3-9.2,15.4-7.4,6.9,2,10,9.1,8,13.9-2.5,6.2-11.2,7.7-14.2,1.4-2.1-4.4,4.8-6,3.7-.8.5.3,1,.4,1.4.3,2.2-.3,2.5-4.7-1.2-5.9-5.7-1.9-9.5,2.7-7.9,8.4,1.5,5.1,6.6,9.7,13.3,8.9,3.8-.4,7.5-2.4,10-6.1,2.3-3.4,3.8-7.7,4.7-12h-1.8c-1,0-1.8-.8-1.8-1.8h0c0-1,.8-1.8,1.8-1.8h1.1c-1.1-.9-1.8-2.2-1.8-3.7,0-2.6,2.1-4.7,4.7-4.7s4.7,2.1,4.7,4.7-.7,2.9-1.8,3.7h1.1c1,0,1.8.8,1.8,1.8h0c0,1-.8,1.8-1.8,1.8h-1.1c7.4,17.3,25.8,17.7,27.1,3.5Z" class="st2"></path>
    <path d="M407.6,162.7l-.7-23.9-119.7-21.1-119.7,21.1-.7,23.9c-.7,25.9-1,51.8-.9,77.8,0,15.8.2,31.5,1,47.3.6,11.8,1,25.4,4.9,36.6,5.9,16.9,24.9,35.7,46,52.2.4-.5,3.1.6,3.6.2,2-1.5,4.2-2.1,4.5-3.9-21.3-16.3-41.1-35-46.7-51.1-3.5-10-3.9-23.8-4.5-34.4-.8-15.6-1-31.3-1-46.9,0-25.8.2-51.7.9-77.5l.5-17.5,112.1-19.8,112.1,19.8.5,17.5c.7,25.8,1,51.7.9,77.5,0,15.6-.2,31.3-1,46.9-.5,10.6-1,24.4-4.5,34.4-5.7,16.5-26.2,35.6-48.1,52.2,2.8,1.4,5.7,2.3,8.6,3.3,21.4-16.7,40.9-35.7,46.9-52.9,3.9-11.1,4.3-24.8,4.9-36.6.8-15.7,1-31.5,1-47.3,0-25.9-.2-51.8-.9-77.8Z" class="st3"></path>
    <path d="M394.1,163.1l-.4-12.9-106.5-18.8-106.5,18.8-.4,12.9c-.7,25.7-1,51.6-.9,77.3,0,15.5.2,31.1,1,46.7.5,9.4,1.1,23.9,4.1,32.8,5.5,15.8,26.5,34.9,48.5,51.3,1.4-.8,2.9-1.3,4.4-1.7-22.2-16.3-43.8-35.5-49.2-50.8-1.5-4.3-2.1-9-2.6-13.5-.7-6.1-1.1-12.1-1.3-18.2-.8-15.5-.9-31-1-46.5,0-25.7.2-51.5.9-77.2l.3-9.7,102.7-18.1,102.7,18.1.3,9.7c.7,25.7,1,51.5.9,77.2,0,15.5-.2,31-1,46.5-.3,6.1-.7,12.2-1.3,18.2-.5,4.5-1.1,9.2-2.6,13.5-5.4,15.5-27.5,35-49.9,51.4,1.7.4,3.3.8,4.9,1.3,22.1-16.4,43.2-35.6,48.7-51.4,3.1-8.9,3.7-23.3,4.1-32.8.8-15.5.9-31.1,1-46.7,0-25.7-.2-51.6-.9-77.3Z" class="st3"></path>
    <polygon points="261.1 419.4 261.1 466.6 287.2 456.6 313.3 466.6 313.3 419.4 312.1 419.4 312.1 465 287.2 455.4 262.3 465 262.3 419.4 261.1 419.4" class="st2"></polygon>
    <path d="M265.8,418.9v43.5l1.1-.4v-43.1h-1.1ZM268.2,418.9v42.6l1.1-.4v-42.1h-1.1ZM270.7,418.9v41.6l1.1-.4v-41.2h-1.1ZM273.1,418.9v40.7l1.1-.4v-40.2h-1.1ZM275.6,418.9v39.7l1.1-.4v-39.3h-1.1ZM278,418.9v38.8l1.1-.4v-38.4h-1.1ZM280.5,418.9v37.8l1.1-.4v-37.4h-1.1ZM283,418.9v36.9l1.1-.4v-36.5h-1.1ZM285.4,418.9v36l1.1-.4v-35.5h-1.1ZM287.9,418.9v35.5l1.1.4v-36h-1.1ZM290.3,418.9v36.5l1.1.4v-36.9h-1.1ZM292.8,418.9v37.4l1.1.4v-37.8h-1.1ZM295.2,418.9v38.4l1.1.4v-38.8h-1.1ZM297.7,418.9v39.3l1.1.4v-39.7h-1.1ZM300.2,418.9v40.2l1.1.4v-40.7h-1.1ZM302.6,418.9v41.2l1.1.4v-41.6h-1.1ZM305.1,418.9v42.1l1.1.4v-42.6h-1.1ZM307.5,418.9v43.1l1.1.4v-43.5h-1.1ZM310,418.9v44l1,.4v-44.4h-1ZM264.4,462.9v-44h-1v44.4l1-.4Z" class="st2"></path>
    <path d="M57.9,424.2c-.1-3-2.6-5.5-5.6-5.5s-5.5,2.4-5.6,5.5h-18.5c-2.3-4.6-6.1-10.4-9.8-8.9-3.9,1.6-13.9,12-18.3,13.7,4.5,1.8,14.5,12.2,18.3,13.7,3.7,1.5,7.6-4.3,9.9-9h18.4c0,3.1,2.6,5.6,5.6,5.6s5.6-2.5,5.6-5.6h66.8v-5.7H54.9v-2.6c-.1-1.6-1.5-2.9-3.1-2.9s-2.1.6-2.6,1.5c0-1.6,1.4-2.8,3-2.8s2.9,1.3,3,2.9v2.6h69.5v-2.7H57.9ZM48.8,428.1h-22.7l-.7-1.5c-.5-1-1-2-1.6-2.9-.7-1.1-3.1-4.7-4.6-4.7,0,0-.1,0-.2,0-1,.4-2.5,1.6-3.3,2.3-1.8,1.4-3.5,2.9-5.2,4.3-1.5,1.3-3.1,2.6-4.7,3.9h0c-.2-.2-.4-.3-.6-.5.2-.2.4-.3.6-.4,1.8-1.3,3.4-2.8,5.1-4.2,1.7-1.5,3.4-2.9,5.2-4.3.8-.7,2.3-1.9,3.3-2.3,0,0,.1,0,.2,0,1.5,0,3.9,3.6,4.6,4.7.6.9,1.1,1.9,1.6,2.9l.7,1.5h22.4v1.3Z" class="st3"></path>
    <path d="M449.7,424.2v2.7s69.4,0,69.4,0v-2.6c.1-1.6,1.5-2.9,3.1-2.9s2.9,1.2,3,2.8c-.5-.9-1.5-1.5-2.6-1.5-1.6,0-2.9,1.3-3,2.9v2.6c0,0-69.8,0-69.8,0v5.7s66.8,0,66.8,0c0,3.1,2.6,5.6,5.6,5.6,3.1,0,5.6-2.5,5.6-5.6h18.4c2.3,4.7,6.2,10.5,9.9,9,3.9-1.5,13.9-12,18.3-13.7-4.5-1.8-14.5-12.2-18.3-13.7-3.7-1.5-7.5,4.3-9.8,8.9h-18.5c-.1-3-2.6-5.5-5.6-5.5-3,0-5.5,2.4-5.6,5.5h-66.8ZM525.5,426.9h22.4s.7-1.5.7-1.5c.5-1,1-2,1.6-2.9.7-1.1,3.1-4.7,4.6-4.7,0,0,.1,0,.2,0,1,.4,2.5,1.6,3.3,2.3,1.8,1.4,3.5,2.9,5.2,4.3,1.7,1.4,3.4,2.9,5.1,4.2.2.1.4.3.6.4-.2.2-.4.3-.6.4h0c-1.6-1.2-3.2-2.5-4.7-3.8-1.7-1.5-3.4-2.9-5.2-4.3-.8-.7-2.3-1.9-3.3-2.3,0,0-.1,0-.2,0-1.5,0-3.9,3.6-4.6,4.7-.6.9-1.1,1.9-1.6,2.9l-.7,1.5h-22.7s0-1.3,0-1.3Z" class="st3"></path>
    <g>
      <path d="M111.6,412.1c.2.5.5,1,.8,1.4,2.4-6.7,9-11,17.3-13.3h0s-.3-.1-.3-.1c-.3,0-.6-.2-.9-.3h0c-.5-.2-1.1-.4-1.7-.5h0c-6.9,2.7-13.6,7-15.2,12.8Z" class="st0"></path>
      <path d="M458.6,416.8c.4-.3.7-.5,1.1-.8-1.8-7.4-10.5-11.9-19-14.6-.2,0-2.9.8-3.3.9,8.8,1.6,18,6.4,21.2,14.5Z" class="st0"></path>
      <path d="M428.8,418.6c1.9.6,3.9,1,5.8,1.3-2.6-2.1-5.7-3.9-7.8-4.9,6.1,1.4,10,3.6,12.4,5.5.5,0,1,0,1.5,0-2.5-2.9-5.9-5.8-8.1-7.3,5.9,2.3,9.5,5.1,11.6,7.3.8,0,1.5,0,2.3-.1-3.1-4-9.4-8.6-14.4-11,5.5,1.5,13.8,4.9,17.6,10.6.6-.1,1.2-.2,1.8-.3-2-6.1-10.6-11.6-21.2-14.5,10.2,1,21.5,5.1,24,13.6.6-.2,1.2-.5,1.8-.7-2.8-7.3-12.4-12.9-21-15.3h-.3c-1.2.4-2.4.7-3.6,1-1,.2-1.9.4-2.9.7h-.1c-4.8,1.1-9.5,2-14.4,2.6h0c.3,1.1.6,2.1,1,2.9,2.2,4.2,8.3,6.9,14,8.5Z" class="st0"></path>
      <path d="M118.3,418.3c.6.3,1.2.5,1.8.7,2.6-8.5,13.8-12.7,24-13.6-10.7,2.8-19.3,8.3-21.2,14.5.6.1,1.2.2,1.8.3,3.7-5.7,12.1-9.1,17.6-10.6-4.9,2.4-11.2,7-14.4,11,.7,0,1.5,0,2.3.1,2.1-2.2,5.6-5,11.6-7.3-2.3,1.5-5.6,4.4-8.1,7.3.5,0,1,0,1.5,0,2.4-1.9,6.3-4.1,12.4-5.5-2.1,1-5.1,2.9-7.8,4.9,1.9-.3,3.9-.8,5.8-1.3,5.7-1.7,11.9-4.3,14-8.5.4-.8.7-1.8,1-2.9h0c-4.9-.7-9.5-1.6-14.4-2.6h-.1c-1-.2-1.9-.5-2.9-.7-1.2-.3-2.4-.6-3.6-.9h-.3c-8.5,2.3-18.1,8-21,15.2Z" class="st0"></path>
      <path d="M123.9,398.3c-1.1-.4-2.2-.7-3.2-1.1-5.6,2.1-9.6,5-10,9.4,0,.3,0,.5,0,.7,2.8-4.3,7.8-7.2,13.2-9Z" class="st0"></path>
      <path d="M114.7,416c.3.3.7.5,1.1.8,3.2-8,12.4-12.9,21.2-14.5-.4-.1-3.1-.9-3.3-.9-8.5,2.7-17.2,7.2-19,14.6Z" class="st0"></path>
      <path d="M453.8,397.2c-1.1.4-2.2.7-3.2,1.1,5.4,1.8,10.5,4.7,13.2,9,0-.2,0-.5,0-.7-.4-4.4-4.4-7.3-10-9.4Z" class="st0"></path>
      <path d="M462,413.6c.3-.5.6-.9.8-1.4-1.6-5.9-8.3-10.1-15.2-12.8h0c-.5.2-1.1.4-1.7.5h0c-.3.1-.6.2-.9.3h-.3c0,.1,0,.1,0,.1,8.3,2.4,14.9,6.6,17.3,13.3Z" class="st0"></path>
      <path d="M463.3,430.3c-20.2,9.4-51.1-1.3-69.4-13.9,38.1,18.3,56.2,16.1,67.7,10.2-18.6,8.8-51.5-3.1-70.7-16.9,14.7,8.1,37.7,19.5,51.4,16-14.4-.4-32.3-8.1-43.3-17.7-30.8-27-71.3-40.5-111.7-40.4-40.5,0-80.9,13.5-111.7,40.4-11.1,9.7-28.9,17.3-43.3,17.7,13.7,3.5,36.7-7.9,51.4-16-19.1,13.7-52.1,25.7-70.7,16.9,11.4,5.9,29.6,8.2,67.7-10.2-18.3,12.6-49.3,23.3-69.4,13.9,12.5,6.3,29.5,10.2,67.9-7.9-17.9,12.3-46.3,21.1-67.5,12.9,13,5.4,34.8,6.8,67.5-6.1-12.5,6.5-28,12.7-43.2,13.8-8.8.6-15.6-.2-20.9-1.7,12.5,4.3,32,5.2,59.1-4.3-11.4,5.4-24.6,10.1-37.5,11-7.6.5-13.7,0-18.7-1.1,14.2,4.7,32.7,6.4,69.2-10.7-13.6,8.1-28.7,15.6-48,17-8.5.6-15.2-.1-20.4-1.5,13,4.9,35.5,8.1,77.3-14-13.4,8.4-33.1,19.2-52.4,20.6-5.6.4-10.5.2-14.6-.4,1.3.3,2.6.6,3.9.8,7,1.1,15.3.8,25-1,10.1-2,21.5-7.9,34.7-14.7,14.3-7.4,30.7-15.9,50.1-21.8,15.7-4.8,30.2-7.2,44.7-7.2,14.5,0,28.9,2.4,44.7,7.2,19.4,6,35.8,14.4,50.1,21.8,13.2,6.8,24.5,12.7,34.7,14.7,9.6,1.9,17.9,2.2,25,1,1.3-.2,2.6-.5,3.9-.8-4.2.6-9,.8-14.6.4-19.4-1.4-39-12.2-52.4-20.6,41.8,22.1,64.3,19,77.3,14-5.2,1.4-11.9,2.1-20.4,1.5-19.3-1.4-34.5-8.9-48-17,36.5,17.1,55,15.4,69.2,10.7-5,1.1-11.1,1.6-18.7,1.1-12.9-.9-26.1-5.6-37.5-11,27.1,9.5,46.6,8.6,59.1,4.3-5.3,1.5-12.1,2.3-20.9,1.7-15.1-1.1-30.6-7.3-43.2-13.8,32.7,13,54.5,11.5,67.5,6.1-21.2,8.2-49.6-.6-67.5-12.9,38.4,18,55.4,14.2,67.9,7.9Z" class="st0"></path>
      <path d="M470.9,405.6c-2.7-7-10.5-12-17-15.4-7.6,3.1-13.3,7.9-21,10.7-7.2,2.6-14.2,4.3-21.8,5.1-3.5.1-5.9.3-8.9-1.8-31.6-27.7-73.2-41.7-114.9-41.7h-.2c-41.8,0-83.3,14-114.9,41.7-3,2.1-5.4,1.9-8.9,1.8-7.5-.8-14.3-2.6-21.3-5.4-7.7-3-10.3-7.1-18-10.2l-1-2.1-4.5,2.4c-16.9,10.3-19.2,18.7-12.6,37.3h0c0,0,0,0,0,0,2.2,11.6,7.2,25.7,16.6,33.4h.1c0,0,.1.1.1.1,13.2,3.4,22.6,3.7,36,1.1,5.7-1.1,11.3-3.2,16.6-5.5,19,8.1,47.7,15.8,66.5,4l1.6-1-1.9-.2c-15.4-1.5-25.4-7.2-35.5-18.2,12.3-6.1,24.8-11.7,38-15.7,14-4.3,28.4-7,43.1-7h.2c14.7,0,29.1,2.7,43.1,7,13.1,4,25.7,9.6,38,15.7-10.2,11-20.1,16.7-35.5,18.2l-1.9.2,1.6,1c18.8,11.8,47.5,4.1,66.5-4,5.3,2.3,10.9,4.4,16.6,5.5,13.4,2.6,22.8,2.3,36-1.1h.1s.1-.1.1-.1c9.4-7.7,14.4-21.8,16.6-33.4h0s0-.1,0-.1c2.4-6.7,5-15.4,2.3-22.4ZM444.7,400.2h.3c.3-.2.6-.3.9-.4h0c.6-.2,1.1-.4,1.7-.5h0c6.9,2.7,13.6,7,15.2,12.8-.2.5-.5,1-.8,1.4-2.4-6.7-9-11-17.3-13.3h0ZM440.7,401.4c8.5,2.7,17.2,7.2,19,14.6-.3.3-.7.5-1.1.8-3.2-8-12.4-12.9-21.2-14.5.4-.1,3.1-.9,3.3-.9ZM413.8,407.2c4.9-.7,9.5-1.5,14.4-2.6h.1c1-.2,1.9-.5,2.9-.7,1.2-.3,2.4-.6,3.6-.9h.3c8.5,2.3,18.1,8,21,15.2-.6.3-1.2.5-1.8.7-2.6-8.5-13.8-12.7-24-13.6,10.7,2.8,19.3,8.3,21.2,14.5-.6.1-1.2.2-1.8.3-3.7-5.7-12.1-9.1-17.6-10.6,4.9,2.4,11.2,7,14.4,11-.7,0-1.5,0-2.3.1-2.1-2.2-5.6-5-11.6-7.3,2.3,1.5,5.6,4.4,8.1,7.3-.5,0-1,0-1.5,0-2.4-1.9-6.3-4.1-12.4-5.5,2.1,1,5.1,2.9,7.8,4.9-1.9-.3-3.9-.8-5.8-1.3-5.7-1.7-11.8-4.3-14-8.5-.4-.8-.7-1.8-1-2.9h0ZM139.6,403c1.2.3,2.4.6,3.6.9,1,.2,1.9.4,2.9.7h.1c4.8,1.1,9.5,2,14.4,2.6h0c-.3,1.1-.6,2.1-1,2.9-2.2,4.2-8.3,6.9-14,8.5-1.9.6-3.9,1-5.8,1.3,2.6-2.1,5.7-3.9,7.8-4.9-6.1,1.4-10,3.6-12.4,5.5-.5,0-1,0-1.5,0,2.5-2.9,5.9-5.8,8.1-7.3-5.9,2.3-9.5,5.1-11.6,7.3-.8,0-1.5,0-2.3-.1,3.1-4,9.4-8.6,14.4-11-5.5,1.5-13.8,4.9-17.6,10.6-.6-.1-1.2-.2-1.8-.3,2-6.1,10.6-11.6,21.2-14.5-10.2,1-21.5,5.1-24,13.6-.6-.2-1.2-.5-1.8-.7,2.8-7.3,12.4-12.9,21-15.3h.3ZM137,402.3c-8.8,1.6-18,6.4-21.2,14.5-.4-.3-.7-.5-1.1-.8,1.8-7.4,10.5-11.9,19-14.6.2,0,2.9.8,3.3.9ZM126.8,399.3h0c.5.2,1.1.4,1.7.5h0c.3.1.6.2.9.3h.3c0,.1,0,.1,0,.1-8.3,2.4-14.9,6.6-17.3,13.3-.3-.5-.6-.9-.8-1.4,1.6-5.9,8.3-10.1,15.2-12.8ZM110.7,406.6c.4-4.4,4.4-7.3,10-9.4,1.1.4,2.2.7,3.2,1.1-5.4,1.8-10.5,4.7-13.2,9,0-.2,0-.5,0-.7ZM227.3,460.9c-15.5,3.8-31.9-.8-46.6-7,.6-.3,1.3-.6,1.9-.9,2.5,1.3,9.2,4.1,14.4,5-3.5-1.9-8.5-5.4-10.6-6.9l2.1-1.1c2.8,1.9,8.7,5.4,13.5,6.9-3.4-2.4-7.9-6.8-9.9-8.7l1.1-.6c2.3,1.5,6.7,4.1,10.3,5.2-2.5-1.8-5.9-5-7.6-6.6l.8-.4c1.8,1.2,5.6,3.5,8.7,4.4-2.2-1.6-5.1-4.3-6.4-5.6l1.5-.8c6.7,6.8,18.1,14.7,26.8,17.1ZM347.1,460.9c8.6-2.5,20.1-10.3,26.8-17.1l1.5.8c-1.3,1.3-4.3,4.1-6.4,5.6,3.1-1,6.9-3.2,8.7-4.4l.8.4c-1.7,1.7-5.1,4.8-7.6,6.6,3.6-1.2,8-3.7,10.3-5.2l1.1.6c-2,2-6.6,6.3-9.9,8.7,4.8-1.5,10.7-5,13.5-6.9l2.1,1.1c-2.1,1.5-7.1,5-10.6,6.9,5.2-.9,11.9-3.7,14.4-5,.6.3,1.3.6,1.9.9-14.7,6.2-31.1,10.8-46.6,7ZM462.8,435.3c-13,5.4-34.8,6.8-67.5-6.1,12.5,6.5,28,12.7,43.2,13.8,8.8.6,15.6-.2,20.9-1.7-12.5,4.3-32,5.2-59.1-4.3,11.4,5.4,24.6,10.1,37.5,11,7.6.5,13.7,0,18.7-1.1-14.2,4.7-32.7,6.4-69.2-10.7,13.6,8.1,28.7,15.6,48,17,8.5.6,15.2-.1,20.4-1.5-13,4.9-35.5,8.1-77.3-14,13.4,8.4,33.1,19.2,52.4,20.6,5.6.4,10.5.2,14.6-.4-1.3.3-2.6.6-3.9.8-7,1.1-15.3.8-25-1-10.1-2-21.5-7.9-34.7-14.7-14.3-7.4-30.7-15.9-50.1-21.8-15.7-4.8-30.2-7.2-44.7-7.2-14.5,0-28.9,2.4-44.7,7.2-19.4,6-35.8,14.4-50.1,21.8-13.2,6.8-24.5,12.7-34.7,14.7-9.6,1.9-17.9,2.2-25,1-1.3-.2-2.6-.5-3.9-.8,4.1.6,9,.8,14.6.4,19.4-1.4,39-12.2,52.4-20.6-41.8,22.1-64.3,19-77.3,14,5.2,1.4,11.9,2.1,20.4,1.5,19.3-1.4,34.5-8.9,48-17-36.5,17.1-55,15.4-69.2,10.7,5,1.1,11.1,1.6,18.7,1.1,12.9-.9,26.1-5.6,37.5-11-27.1,9.5-46.6,8.6-59.1,4.3,5.3,1.5,12.1,2.3,20.9,1.7,15.1-1.1,30.6-7.3,43.2-13.8-32.7,13-54.5,11.5-67.5,6.1,21.2,8.2,49.6-.6,67.5-12.9-38.4,18-55.4,14.2-67.9,7.9,20.2,9.4,51.1-1.3,69.4-13.9-38.1,18.3-56.2,16.1-67.7,10.2,18.6,8.8,51.5-3.1,70.7-16.9-14.7,8.1-37.7,19.5-51.4,16,14.4-.4,32.3-8.1,43.3-17.7,30.8-27,71.3-40.5,111.7-40.4,40.5,0,80.9,13.5,111.7,40.4,11.1,9.7,28.9,17.3,43.3,17.7-13.7,3.5-36.7-7.9-51.4-16,19.1,13.7,52.1,25.7,70.7,16.9-11.4,5.9-29.6,8.2-67.7-10.2,18.3,12.6,49.3,23.3,69.4,13.9-12.5,6.3-29.5,10.2-67.9-7.9,17.9,12.3,46.3,21.1,67.5,12.9ZM450.5,398.3c1.1-.4,2.2-.7,3.2-1.1,5.6,2.1,9.6,5,10,9.4,0,.3,0,.5,0,.7-2.8-4.3-7.8-7.2-13.2-9Z" class="st3"></path>
    </g>
    <path d="M381,420.5c1.4,0,2.5,1.1,2.5,2.5s-1.1,2.5-2.5,2.5-2.5-1.1-2.5-2.5,1.1-2.5,2.5-2.5M193.4,420.5c1.4,0,2.5,1.1,2.5,2.5s-1.1,2.5-2.5,2.5-2.5-1.1-2.5-2.5,1.1-2.5,2.5-2.5Z" class="st2"></path>
    <path d="M177.1,376c0-14.9-6.8-29.6-20.4-35.3-11.9-4.9-28.3-4.2-43.9,3.1,0,0,2.6-4.7,4.5-7.1-6.6,1.5-10.8-.1-17.2-2.3,0,0,9.9-9.6,19.8-9-1.6-1.5-3.2-2.7-4.9-4.1,18.4-1.6,33.7,2.1,45.9,14.1-7.1-5.1-17.4-9.8-30.3-9.7,12.4,1.7,31.5,9,38.5,19.9-18.2-17.3-41.6-18.9-63.7-12.2,31.3-7.6,75.3,3.1,71.7,42.7M80.4,313c14.9-7.2,38-6.7,52.2-.5-28.5-13.6-66.8.5-105.9-23.9,17.4,12.1,45.5,17.2,62.6,18.5-.1,0-.2,0-.3,0,.5,0,1.1,0,1.6,0-5.9,1.7-13.4,4.7-21.2,6.4-8.6,1.9-17.4,2.3-22.5.6,7.1,3.2,17.5,1.7,26.3.2-4.6,2.4-9.2,4.9-14.9,5.5,2.9.7,6.1,0,9.4-1.3-4.4,3.2-8.8,6.4-14.6,7.9,3.3.3,6.8-1.7,10.2-3.7,1.6-.9,6.5-4.7,13.5-8.3.9-.5,2.3-1,3.5-1.3ZM138.9,278.3c-1.5-8.7,1.8-21.8,8.3-31.2,0,0-3.5,1.2-5.4,2.2,1.8-4.3,1.2-7.4.4-12,0,0-7.7,5.6-8.4,12.4-.9-1.2-1.5-2.5-2.2-3.8-3.3,12.4-2.6,23.2,4.2,32.9-1.5-5.3-4.2-13-3.1-21.8-.2,5.1,1.4,12.1,3.5,18.2-1.6-10.5-.5-24,4.8-34.4-5,11.4-6.5,26.2-2,37.4ZM76.7,296.4c-12.5-9.6-7.8-27.6,4.6-27.8,6.2,0,12.4,4.6,10.6,11.4-.7,2.4-2.3,4.6-4.5,5.3-3.8,1.1-5.8-2.5-5-5.1.2-.7.7-1.2,1.2-1.5,2.2-1.2,3.4,2.1,1.2,2.7.7,1.2,3.1.8,3.1-2.1,0-5-5.6-5-8.8-2.8-7.5,5.2-.8,16.7,7.1,20.5h0c-1.5-.6-2.9-1.2-4.2-2-4.2-2.5-7.4-6.2-8.3-11.1-.8-4.2.6-7,2.9-8.7,3-2.3,9.3-3.3,12.1.6-.1-2.1-6-5.7-12.6-1.2-2.5,1.9-4,5-3.2,9.6,2.8,15.4,26.2,20.1,42.8,14.8-1.3,1.8-2.2,3-3.2,3.8,9.8,1.3,19,3.6,30.8,9.9,19.8,10.5,36.3,27.4,42.4,45.7-10.5-33.1-41.6-47.9-54.4-54.1,9.2,1.5,17.5,4.2,25.6,9.1.2.1.4.3.6.4-8.1-6.9-15-10.8-17.3-12.3-9.4-5.9-16.5-13.7-13.9-28.7,2.6,5,8.3,11.9,18.1,14.2-3-17.8,1.7-35.3,23.6-47.4-4.8,6.1-6.8,19.4-7.1,23.4-.7,11,.8,21.9,3.8,32.5-4.8-11.2-10.4-26.8-9-37.3-5.3,23.1,18.5,53.4,24,74-5.4-7.9-13.5-17.8-19.8-28.5-7-12-11.9-24.8-11.8-33.2-1.4,12.1,6,26.9,12.5,39.3-5.9-5.7-11.8-11.3-15.5-19.6.4,4.7,3,9.1,6.5,13.3-6.9-5.1-13.9-9.9-18.8-17.9,1.1,5.1,5.8,9.3,10.6,13.5,3.1,2.7,18.2,12.8,30.3,29.1,8.9,10.9,13.5,19.2,15.2,26.3,1.4,6,4.4,16.6,1.8,24.4-16.2,50.1-76,34.3-72.1-1.4-2.6,2.5-3.1,9.5-.9,13.1-6.8-5.3-6.9-10.9-4.6-18.8-3,1.4-5.3,13.9-3.2,20.9-9.5-19.7,4-45.5,24-43.8,3.9.3,7.7,1.7,10.9,3.5,16.5,9.2,10.9,25.7,1.6,30.1-6.8,3.2-18.3-1.3-17-9.6.8-4.9,5.8-8.8,11-5.7,2.4,1.4,4,4.4,3.6,8.9,2.1-2.5,1.2-8-2.3-10.8-4.6-3.6-11.4-1.4-14.4,3.3-1.1,1.7-1.8,3.8-2.1,5.9-2.5,16.5,19.2,27.7,35.7,19.6-.4,1.9-1.5,5.1-2.2,6.3,4.1-2.5,7.7-5.2,10.8-8.2.7.4,1.6.8,2.4,1-1.5,2.4-3.3,5.6-5.6,7.3,3.3-1.8,5.8-5.6,7.8-8.2-1.7.1-3.8-.7-4.9-1.7,4.4,0,8.1-8.2,9.1-11.7,3.4-10.9,1-23.3-8.2-36.6-16.8-24-88.3-49-100.3-14.5-2.1,5.9-.6,10.5,2.3,13.6,8.1,7.4,16.8,3.8,17.3,1-4.7,4.7-13,2-16.5-1.7-2.7-2.8-4-6.9-2.1-12.4,2.2-6.4,7.4-10.7,13.6-13.2,2-.8,4-1.4,6.2-1.8h0c-11.4,3.5-22.8,17.7-13.8,26.2,3.8,3.6,11.5,4.8,12.5-2,.6-3.8-2.6-4.9-3.8-3.4,2.9,1.3.5,5.6-2.2,3.4-.7-.6-1.2-1.3-1.4-2.3-.5-3.7,3-8.1,7.8-5.8,2.9,1.4,4.6,4.7,5,8.1,1.8,14.9-22.2,18.7-27.8,4.5-3.1-7.7.4-18.4,7.1-24.6-3.4,2.6-6.9,5.4-9.7,7.8-5.4,4.5-11.6,7.3-20.2,2.8,3.5-.6,8.9-2.7,12.2-8.2-11.4-1.7-25.1-9.4-28.3-24.2,5.1,3.7,14.7,8.5,17,9.5,6.5,2.6,13.4,3.8,20.5,4.1-7.7.7-18.3,1-24.4-1.9,8.9,5.3,22.5,3,34.5,1.3h-.5c-10.6-1.5-22-4-31.9-8.3-11.5-4.9-46-22.8-34.3-39.8,3.1-4.5,8.9-7.4,14.2-5.6-4-2.6-11.4-2.5-15.9,5.9,3.7-14,24.4-16.2,26.6,2.7.9-6.6-3.4-11.8-6.8-14.3,9.3,3.2,15.4,16,7.6,24.4-9.5,10.4-20.6-1.7-13.6-9.5,5.7-6.3,10.3,1.9,4.5,7.1,10-6,.6-15.5-7.7-12.1-2.8,1.1-5.3,3.4-6,6.8-2,9.2,13.4,20.9,33,27.5,7.5,2.5,15.1,3.9,22.9,5.1-6.5-2.7-12.6-6.3-18.2-10.6-5.5,2.9-12.4-6-11.6-10.2,3.7-1.4,12.4,2.8,12.4,8-2.4-1.4-5-2.8-7.5-4.3,8.6,7,18.7,12.1,29.4,15.1-2.8-1.7-5.5-3.7-8-6-3.5,1.5-7.3-4.3-6.6-6.9,2.3-.7,7.4,2.4,7.2,5.6-1.4-1-2.9-2-4.4-3.1,4.8,4.6,10.4,8.1,16.5,10.5Z" class="st2"></path>
    <path d="M397.3,376c0-14.9,6.8-29.6,20.4-35.3,11.9-4.9,28.3-4.2,43.9,3.1,0,0-2.6-4.7-4.5-7.1,6.6,1.5,10.8-.1,17.2-2.3,0,0-9.9-9.6-19.8-9,1.6-1.5,3.2-2.7,4.8-4.1-18.4-1.6-33.7,2.1-45.9,14.1,7.1-5.1,17.4-9.8,30.3-9.7-12.4,1.7-31.5,9-38.5,19.9,18.2-17.3,41.6-18.9,63.7-12.2-31.3-7.6-75.3,3.1-71.7,42.7M494,313c-14.9-7.2-38-6.7-52.2-.5,28.5-13.6,66.8.5,105.9-23.9-17.4,12.1-45.5,17.2-62.6,18.5,0,0,.2,0,.3,0-.5,0-1.1,0-1.6,0,5.9,1.7,13.4,4.7,21.2,6.4,8.6,1.9,17.4,2.3,22.5.6-7.1,3.2-17.5,1.7-26.3.2,4.6,2.4,9.2,4.9,14.9,5.5-2.9.7-6.1,0-9.4-1.3,4.4,3.2,8.8,6.4,14.6,7.9-3.3.3-6.8-1.7-10.2-3.7-1.6-.9-6.5-4.7-13.5-8.3-.9-.5-2.3-1-3.5-1.3ZM435.6,278.3c1.5-8.7-1.8-21.8-8.3-31.2,0,0,3.5,1.2,5.4,2.2-1.8-4.3-1.2-7.4-.4-12,0,0,7.7,5.6,8.4,12.4.9-1.2,1.5-2.5,2.2-3.8,3.3,12.4,2.6,23.2-4.2,32.9,1.5-5.3,4.2-13,3.1-21.8.2,5.1-1.4,12.1-3.5,18.2,1.6-10.5.5-24-4.8-34.4,5,11.4,6.5,26.2,2,37.4ZM497.7,296.4c12.5-9.6,7.8-27.6-4.6-27.8-6.2,0-12.4,4.6-10.6,11.4.7,2.4,2.3,4.6,4.5,5.3,3.8,1.1,5.8-2.5,5-5.1-.2-.7-.7-1.2-1.2-1.5-2.2-1.2-3.4,2.1-1.2,2.7-.7,1.2-3.1.8-3.1-2.1,0-5,5.6-5,8.8-2.8,7.5,5.2.8,16.7-7.1,20.5h0c1.5-.6,2.9-1.2,4.2-2,4.2-2.5,7.4-6.2,8.3-11.1.8-4.2-.6-7-2.9-8.7-3-2.3-9.3-3.3-12.1.6.1-2.1,6-5.7,12.6-1.2,2.5,1.9,4,5,3.2,9.6-2.8,15.4-26.2,20.1-42.8,14.8,1.3,1.8,2.2,3,3.2,3.8-9.8,1.3-19,3.6-30.8,9.9-19.8,10.5-36.3,27.4-42.4,45.7,10.5-33.1,41.6-47.9,54.4-54.1-9.2,1.5-17.5,4.2-25.6,9.1-.2.1-.4.3-.6.4,8.1-6.9,15-10.8,17.3-12.3,9.4-5.9,16.5-13.7,13.9-28.7-2.6,5-8.3,11.9-18.1,14.2,3-17.8-1.7-35.3-23.6-47.4,4.8,6.1,6.8,19.4,7.1,23.4.7,11-.8,21.9-3.8,32.5,4.8-11.2,10.4-26.8,9-37.3,5.3,23.1-18.5,53.4-24,74,5.4-7.9,13.5-17.8,19.8-28.5,7-12,11.9-24.8,11.8-33.2,1.4,12.1-6,26.9-12.5,39.3,5.9-5.7,11.8-11.3,15.5-19.6-.4,4.7-3,9.1-6.5,13.3,6.9-5.1,13.9-9.9,18.8-17.9-1.1,5.1-5.8,9.3-10.6,13.5-3.1,2.7-18.2,12.8-30.3,29.1-8.9,10.9-13.5,19.2-15.2,26.3-1.4,6-4.4,16.6-1.8,24.4,16.2,50.1,76,34.3,72.1-1.4,3.3,4.9,4.4,11.5,2.8,15,4-4.9,4.7-13.6,2.6-20.7,2.9,6.9,3.9,14.9,2.7,21.6h.2c10.2-19.7-3.4-46.2-23.6-44.5-3.9.3-7.7,1.7-10.9,3.5-16.5,9.2-10.9,25.7-1.6,30.1,6.8,3.2,18.3-1.3,17-9.6-.8-4.9-5.8-8.8-11-5.7-2.4,1.4-4,4.4-3.6,8.9-2.1-2.5-1.2-8,2.3-10.8,4.6-3.6,11.4-1.4,14.4,3.3,1.1,1.7,1.8,3.8,2.1,5.9,2.5,16.5-19.2,27.7-35.7,19.6.4,1.9,1.5,5.1,2.2,6.3-4.1-2.5-7.7-5.2-10.8-8.2-.7.4-1.6.8-2.4,1,1.5,2.4,3.3,5.6,5.6,7.3-3.3-1.8-5.8-5.6-7.8-8.2,1.7.1,3.8-.7,4.9-1.7-4.4,0-8.1-8.2-9.1-11.7-3.4-10.9-1-23.3,8.2-36.6,16.8-24,88.3-49,100.3-14.5,2.1,5.9.6,10.5-2.3,13.6-8.1,7.4-16.8,3.8-17.3,1,4.7,4.7,13,2,16.5-1.7,2.7-2.8,4-6.9,2.1-12.4-2.2-6.4-7.4-10.7-13.6-13.2-2-.8-4-1.4-6.2-1.8h0c11.4,3.5,22.8,17.7,13.8,26.2-3.8,3.6-11.5,4.8-12.5-2-.6-3.8,2.6-4.9,3.8-3.4-2.9,1.3-.5,5.6,2.2,3.4.7-.6,1.2-1.3,1.4-2.3.5-3.7-3-8.1-7.8-5.8-2.9,1.4-4.6,4.7-5,8.1-1.8,14.9,22.2,18.7,27.8,4.5,3.1-7.7-.4-18.4-7.1-24.6,3.4,2.6,6.9,5.4,9.7,7.8,5.4,4.5,11.6,7.3,20.2,2.8-3.5-.6-8.9-2.7-12.2-8.2,11.4-1.7,25.1-9.4,28.3-24.2-5.1,3.7-14.7,8.5-17,9.5-6.5,2.6-13.4,3.8-20.5,4.1,7.7.7,18.3,1,24.4-1.9-8.9,5.3-22.5,3-34.5,1.3h.5c10.6-1.5,22-4,31.9-8.3,11.5-4.9,46-22.8,34.3-39.8-3.1-4.5-8.9-7.4-14.2-5.6,4-2.6,11.4-2.5,15.9,5.9-3.7-14-24.4-16.2-26.6,2.7-.8-6.6,3.4-11.8,6.8-14.3-9.3,3.2-15.4,16-7.6,24.4,9.5,10.4,20.6-1.7,13.6-9.5-5.7-6.3-10.3,1.9-4.5,7.1-10-6-.6-15.5,7.7-12.1,2.8,1.1,5.3,3.4,6,6.8,2,9.2-13.4,20.9-33,27.5-7.5,2.5-15.1,3.9-22.9,5.1,6.5-2.7,12.6-6.3,18.2-10.6,5.5,2.9,12.4-6,11.6-10.2-3.7-1.4-12.4,2.8-12.4,8,2.4-1.4,5-2.8,7.5-4.3-8.6,7-18.7,12.1-29.4,15.1,2.8-1.7,5.5-3.7,8-6,3.5,1.5,7.3-4.3,6.6-6.9-2.3-.7-7.4,2.4-7.2,5.6,1.4-1,2.9-2,4.4-3.1-4.8,4.6-10.4,8.1-16.5,10.5Z" class="st2"></path>
    <path d="M124.2,141.7c-1.3,1.1-1.8,2.8-1.4,4.1.6,2.5,3.9,2.1,4.1.3.4,1.2.3,2.7-1.3,3.3-.5.2-1,.3-1.6.2-.7,0-1.4-.4-2.2-1.1-1.1-.9-1.8-2.3-2.1-3.8-.2-1.5,0-3.1.7-4.5,1-2,3-3.2,5.2-3.6,1.4-.3,2.9-.2,4.4.3,1.4.5,2.8,1.3,3.9,2.5,4.6,5,2.1,13.1,0,18.6,1.5-6.1,3.7-13.4-.6-18-1-1.1-2.2-1.8-3.5-2.2-1.3-.4-2.7-.5-4-.3-1.9.4-3.7,1.4-4.6,3.2-.6,1.2-.8,2.6-.6,3.9,0,.5.2.9.4,1.4-.4-1.7-.1-3.9,1.1-5.5-2.3,4.9.5,8.6,3.3,7.5-2.6.7-4-2.4-3.7-4.6.5-3.1,4.2-5.3,7.5-4.4,4,1.1,5.7,5.7,5.3,9.5-.6,6-7.4,19.2-12.6,28.6-1.1-11.9-10.3-22.8-15.4-24.1.7,18.1-2.4,36.3-7.8,53.5-4.2,13.3-8.1,26-6.4,40.1-.7-11.4,2.1-21.9,5.7-32.4-3.7,12.4-5.3,24.9-2.8,38.7-2.7-17.3,3.1-31.6,9.1-46.6,5.4-13.3,9.9-21.3,9.9-38.4,6.3,24.8-19.3,49.7-17.4,79.7.7,10.7,6.9,24.7,16.1,33.2-7.7-9.7-12.5-24.1-11.7-34.6.4-6.5,2.7-12.7,6.8-16.7-4.2,4.6-5.2,11.9-5.6,18.8.7-7.2,3.6-14.1,8.8-18-3.6,3.4-5.2,8.8-6.6,13.8,3-9.7,10.6-17,22.3-14.5-11.8,0-18.6,7.1-21.3,16.4h0c3.3-7.4,6.2-8.3,6.8-7.7,4.6,6.6,14.7,6.5,18.3-1.2,8.5-18.6-22.4-27.2-31.2,2.7,5.9-41,25.8-58.3,51.3-44.7-14.6-6.8-27-2-35.7,7.8,12.8-4.6,16.8-5.2,23.3-3.9-8.1-.2-15.6,2.9-21.7,8,10.3-7.4,24.3-8.6,39.7,1.7,2.1-22-15.1-30.8-30.2-27.4,6.2-8,13.4-16.5,17.9-19.1,3.4-2,8.6-2.4,11.5,1,2.4,2.9,1.8,7.3-.9,9.2-1.9,1.3-5.6,1.3-6-1.5.2,3.2,5,4.3,8.7-.1-1.1,2-3,3.2-4.9,3.5.5,0,1,0,1.5-.2,1.4-.4,2.6-1.1,3.5-2.3,1.3-1.6,1.6-3.8,1.1-5.8-.3-1.3-1-2.6-2-3.7-1-1.1-2.2-2-3.7-2.4-6.3-2.1-12.4,3.2-17.7,7.3,4.4-4.6,11.1-10.5,17.9-8.2,1.6.5,3,1.5,4.1,2.7,1.1,1.2,1.8,2.6,2.2,4.1.6,2.3.2,4.7-1.2,6.6-1,1.3-2.5,2.2-4,2.6-1.6.4-3.2.3-4.6-.3-.9-.5-1.6-1-2-1.6-.3-.5-.5-1.1-.5-1.6,0-1.8,1.3-2.6,2.7-2.7-1.6,1-.6,4.3,2.1,3.8,1.4-.2,2.9-1.4,3.3-3.2-2,3.7-6.7,2.8-5.7,0-.2,2.9,5.7,2.7,4.2-2.2-1.5-4.8-9.5-3.4-9.8,2.2-.2,4.1,3.3,7.2,7,7.8,6.5,1.1,11.5-4.1,10.9-10.6-.7-6.2-6.1-11.1-12.5-10.3-3.4.4-6.7,2.3-9.6,4.8-4.4,3.9-10.1,10.7-15.3,17.4,4.8-8.6,10.6-19.6,12.8-26.6,1-3.4,1.4-7,.4-10.1-1.8-5.8-8.1-8.6-13.7-6.7-5.9,1.9-8.4,8.3-4.9,13.4,2,2.9,6,4.8,9.4,3,4.7-2.4,2.9-9.8-1.9-9.3-4.8.6-2.7,5.8-.3,4.4-2.1,1.9-4.6-1.8-2.2-4.9" class="st2"></path>
    <path d="M450.2,141.7c1.3,1.1,1.8,2.8,1.4,4.1-.6,2.5-3.9,2.1-4.1.3-.4,1.2-.3,2.7,1.3,3.3.5.2,1,.3,1.6.2.7,0,1.4-.4,2.2-1.1,1.1-.9,1.8-2.3,2.1-3.8.2-1.5,0-3.1-.7-4.5-1-2-3-3.2-5.2-3.6-1.4-.3-2.9-.2-4.4.3-1.4.5-2.8,1.3-3.9,2.5-4.6,5-2.1,13.1,0,18.6-1.5-6.1-3.7-13.4.6-18,1-1.1,2.2-1.8,3.5-2.2,1.3-.4,2.7-.5,4-.3,1.9.4,3.7,1.4,4.6,3.2.6,1.2.8,2.6.6,3.9,0,.5-.2.9-.4,1.4.4-1.7.1-3.9-1.1-5.5,2.3,4.9-.5,8.6-3.3,7.5,2.6.7,4-2.4,3.7-4.6-.5-3.1-4.2-5.3-7.5-4.4-4,1.1-5.7,5.7-5.3,9.5.6,6,7.4,19.2,12.6,28.6,1.1-11.9,10.3-22.8,15.4-24.1-.7,18.1,2.4,36.3,7.8,53.5,4.2,13.3,8.1,26,6.4,40.1.7-11.4-2.1-21.9-5.7-32.4,3.7,12.4,5.3,24.9,2.8,38.7,2.7-17.3-3.1-31.6-9.1-46.6-5.4-13.3-9.9-21.3-9.9-38.4-6.3,24.8,19.3,49.7,17.4,79.7-.7,10.7-6.9,24.7-16.1,33.2,7.7-9.7,12.5-24.1,11.7-34.6-.4-6.5-2.7-12.7-6.8-16.7,4.2,4.6,5.2,11.9,5.6,18.8-.7-7.2-3.6-14.1-8.8-18,3.6,3.4,5.2,8.8,6.6,13.8-3-9.7-10.6-17-22.3-14.5,11.8,0,18.6,7.1,21.3,16.4h0c-3.3-7.4-6.2-8.3-6.8-7.7-4.6,6.6-14.7,6.5-18.3-1.2-8.5-18.6,22.4-27.2,31.2,2.7-5.9-41-25.8-58.3-51.3-44.7,14.6-6.8,27-2,35.7,7.8-12.8-4.6-16.8-5.2-23.3-3.9,8.1-.2,15.6,2.9,21.7,8-10.3-7.4-24.3-8.6-39.7,1.7-2.1-22,15.1-30.8,30.2-27.4-6.2-8-13.4-16.5-17.9-19.1-3.4-2-8.6-2.4-11.5,1-2.4,2.9-1.8,7.3.9,9.2,1.9,1.3,5.6,1.3,6-1.5-.2,3.2-5,4.3-8.7-.1,1.1,2,3,3.2,4.9,3.5-.5,0-1,0-1.5-.2-1.4-.4-2.6-1.1-3.5-2.3-1.3-1.6-1.6-3.8-1.1-5.8.3-1.3,1-2.6,2-3.7,1-1.1,2.2-2,3.7-2.4,6.3-2.1,12.4,3.2,17.7,7.3-4.4-4.6-11.1-10.5-17.9-8.2-1.6.5-3,1.5-4.1,2.7-1.1,1.2-1.8,2.6-2.2,4.1-.6,2.3-.2,4.7,1.2,6.6,1,1.3,2.5,2.2,4,2.6,1.6.4,3.2.3,4.6-.3.9-.5,1.6-1,2-1.6.3-.5.5-1.1.5-1.6,0-1.8-1.3-2.6-2.7-2.7,1.6,1,.6,4.3-2.1,3.8-1.4-.2-2.9-1.4-3.3-3.2,2,3.7,6.7,2.8,5.7,0,.2,2.9-5.7,2.7-4.2-2.2,1.5-4.8,9.5-3.4,9.8,2.2.2,4.1-3.3,7.2-7,7.8-6.5,1.1-11.5-4.1-10.9-10.6.7-6.2,6.1-11.1,12.5-10.3,3.4.4,6.7,2.3,9.6,4.8,4.4,3.9,10.1,10.7,15.3,17.4-4.8-8.6-10.6-19.6-12.8-26.6-1-3.4-1.4-7-.4-10.1,1.8-5.8,8.1-8.6,13.7-6.7,5.9,1.9,8.4,8.3,4.9,13.4-2,2.9-6,4.8-9.4,3-4.7-2.4-2.9-9.8,1.9-9.3,4.8.6,2.7,5.8.3,4.4,2.1,1.9,4.6-1.8,2.2-4.9" class="st2"></path>
    <path d="M382.7,163.4v-3.6c0,0-95.5-16.8-95.5-16.8l-95.4,16.8v3.6c-.8,25.6-1.1,51.4-1,77,0,15.4.2,30.8,1,46.1.3,5.9.7,11.9,1.3,17.7.4,3.7,1,8.3,2.2,11.8,5.2,15.1,29.8,35.5,53.2,52,.5.3,22.2-2.8,41.9-2.8,18.4,0,34.9,3.3,35.2,3.1,23.4-16.5,48.3-37.1,53.6-52.3,1.2-3.6,1.8-8.1,2.2-11.8.7-5.9,1-11.8,1.3-17.7.8-15.3.9-30.8,1-46.1,0-25.6-.2-51.4-.9-77ZM352.7,328h-127.3v-6.7h22.7v-140.7h-22.7v-6.7h74.1v6.7h-24.1v140.7h37.2c2.6,0,5.2-.3,7.7-.8,10.4-2.4,17.8-11.1,22.2-26.2l5.4-18.5h6.2l-1.4,52.1Z" class="st3"></path>
    <g>
      <path d="M228,413.2c-6.6-4.5-12.8-9.4-19.6-13.6,1.8,4.6,3.6,9.2,5.5,13.9.4,1.1.8,1.8,1,2.1.2.3.6.5,1.2.6.6,0,1.3,0,2.3-.4,0,.2.1.4.2.6-2.6,1-3.9,1.6-6.6,2.7,0-.2-.1-.4-.2-.6.8-.4,1.4-.8,1.7-1.3.3-.4.5-.8.5-1.2,0-.3-.3-1.1-.7-2.2-1.4-3.6-2.8-7.2-4.3-10.7-.6-1.5-1-2.4-1.4-2.9-.3-.4-.7-.6-1-.6-.3,0-1,.2-2.1.6,0-.2-.1-.4-.2-.6,2.3-.9,3.4-1.4,5.7-2.3,5.9,3.2,11.2,7.5,16.5,11.5-1.4-4.1-2.8-8.2-4.1-12.3-.3-.9-.6-1.4-.8-1.7-.3-.3-.7-.4-1.3-.4-.6,0-1.3.1-2,.4,0-.2-.1-.4-.2-.6,2.8-1,4.1-1.5,6.9-2.5,0,.2.1.4.2.6-.8.3-1.4.7-1.8,1.1-.4.4-.6.8-.6,1.2,0,.4.1,1,.4,1.8,1.8,5.5,3.7,11.1,5.5,16.6-.2,0-.3.1-.6.2Z" class="st5"></path>
      <path d="M245.2,400.8c.3,0,.4,0,.7-.2.5,2.6.8,3.9,1.1,6.3-5,1.2-9.9,2.7-14.7,4.3,0-.2-.1-.4-.2-.6.1,0,.2,0,.4-.1.9-.3,1.4-.6,1.6-.9.2-.3.3-.7.2-1.1,0-.4-.3-1.4-.8-3.1-1.1-3.4-2.1-6.8-3.2-10.2-.5-1.5-.8-2.5-1-2.9-.2-.4-.5-.7-.8-.8-.3,0-1,0-1.9.3,0-.2-.1-.4-.2-.6,4.5-1.5,9.1-2.8,13.7-4,.6,1.8.9,2.7,1.6,4.7-.3,0-.4,0-.7.2-.7-1.4-1.3-2.2-1.9-2.7-.6-.4-1.2-.7-1.8-.6-.6,0-1.6.2-3,.6-1.1.3-1.6.5-2.7.8.8,3.1,1.4,4.9,2.5,8.5.8-.2,1.2-.4,2-.6.9-.3,1.5-.5,1.8-.8.3-.3.5-.6.5-1,0-.4-.1-1.1-.4-2.1.3,0,.4-.1.7-.2.8,2.8,1.2,4.4,2,7.2-.3,0-.4.1-.6.2-.3-1.2-.6-1.9-.9-2.3-.3-.4-.6-.5-1-.6-.4,0-.9,0-1.7.3-.8.2-1.2.4-2,.6.6,2,.9,3,1.5,5,.7,2.4,1.2,3.7,1.6,4,.4.3,1.2.3,2.4,0,.5-.2.8-.2,1.3-.4.9-.3,1.7-.6,2.2-1,.5-.4,1-1.1,1.4-2.1.4-1,.5-2.2.4-3.9Z" class="st5"></path>
      <path d="M267.4,404c-.2,0-.4,0-.6,0-2.8-5.6-5.8-11-8.9-16.4-.6,5.9-.9,11.9-1.6,17.8-.3,0-.4,0-.6.1-2.6-5.1-5.4-10.2-8.1-15.2-.8-1.4-1.3-2.2-1.6-2.6-.3-.4-.6-.7-.9-.8-.3-.1-.9-.1-1.6,0,0-.3,0-.4-.1-.6,2.9-.7,4.4-1,7.4-1.5,0,.2,0,.4.1.6-.9.2-1.4.5-1.7.7-.2.2-.3.5-.2.9,0,.3.4,1.1,1.1,2.4,2.1,3.9,4.2,7.8,6.2,11.7.4-5.8.8-11.6,1.8-17.4.3,0,.5,0,.8-.1,3,5.3,5.9,10.7,8.7,16.1.4-3.9.7-7.8,1.3-11.6.2-1.5.3-2.5.2-2.9-.2-1.3-.9-1.8-2.4-1.7,0-.3,0-.4,0-.6,2.3-.2,3.4-.3,5.8-.4,0,.3,0,.4,0,.6-.8.1-1.5.4-1.8,1-.4.6-.7,1.8-1.1,4-.7,5.3-1.1,10.7-2,16.1Z" class="st5"></path>
      <path d="M292.5,393.6c1.6-2.9,2.4-4.3,4.2-7,.7-1.1,1.1-1.9,1.1-2.3,0-.4-.1-.8-.5-1.1-.3-.3-1-.5-1.9-.6,0-.3,0-.4,0-.6,2.8,0,4.2.2,7,.3,0,.3,0,.4,0,.6-1,0-1.8.3-2.4.8-.6.5-1.4,1.4-2.4,2.9-1.7,2.6-3.3,5.2-4.8,7.9,0,1.2,0,1.7,0,2.9,0,1.8,0,2.9,0,3.3,0,.5.3.8.6,1,.3.2.9.3,1.9.3,0,.3,0,.4,0,.6-3.2-.1-4.8-.2-8-.2,0-.3,0-.4,0-.6.1,0,.2,0,.3,0,.8,0,1.4,0,1.7-.3.3-.2.5-.5.6-1,0-.5.1-1.5.1-3.3,0-1,0-1.6,0-2.6-1.7-3-3.4-6-5.3-8.8-1.1-1.7-1.9-2.6-2.2-2.9-.4-.3-1-.4-1.9-.4,0-.3,0-.4,0-.6,3.5-.1,5.2-.1,8.7-.1,0,.3,0,.4,0,.6-1.6,0-2.4.3-2.4,1,0,.3.3.8.8,1.6,1.8,2.7,3.4,5.6,4.9,8.5Z" class="st5"></path>
      <path d="M301.2,392.4c.2-3.4,1.5-6,3.8-7.7,2.3-1.7,5.1-2.3,8.3-1.9,3.2.4,5.7,1.6,7.5,3.8,1.8,2.1,2.2,6,1.6,8.5-.7,3.2-2.1,5.8-4.2,7.4-2.2,1.6-4.7,2.1-7.7,1.7-2.9-.3-5.3-1.4-7-3.5-1.7-2.1-2.5-4.9-2.3-8.3ZM304.6,392.8c-.3,3.5,0,6.1,1.1,7.9,1,1.7,2.8,2.6,5.1,2.9,2.1.3,3.8-.3,5.3-1.7,1.5-1.4,2.5-3.9,3.1-7.3.6-3.4.4-6-.6-7.9-1-1.9-2.8-2.9-5.3-3.2-2.5-.3-4.5.3-6,1.8-1.5,1.5-2.4,4-2.7,7.5Z" class="st5"></path>
      <path d="M341.5,411.1c-1.9-.6-2.8-.9-4.7-1.5-.7-.9-1.5-2.8-2.6-6.2-.3-1.1-.7-2.1-1.1-3.2-.4-1-.7-1.7-.9-1.9-.2-.3-.5-.5-1-.6-.3,0-.4-.1-.7-.2-.4,1.9-.7,2.8-1.1,4.6-.4,1.6-.6,2.6-.6,3.1s0,.9.3,1.2c.2.3.8.5,1.6.8.3,0,.5.1.9.2,0,.3,0,.4-.1.6-3.4-.9-5.1-1.3-8.6-2.1,0-.3,0-.4.1-.6.2,0,.4,0,.6.1.8.2,1.3.2,1.7,0,.3-.1.6-.4.8-.8.2-.4.4-1.5.8-3.2.7-3.4,1.5-6.9,2.2-10.3.3-1.6.5-2.6.5-3.1,0-.5-.1-.8-.4-1.1-.3-.2-.9-.5-1.9-.7-.1,0-.2,0-.3,0,0-.3,0-.4.1-.6,1.2.2,1.7.3,2.9.6,1.9.4,3.4.8,4.5,1.1,1.9.5,3.4,1.2,4.5,1.9,1.1.7,1.9,1.5,2.4,2.5.5,1,.6,2,.3,3.2-.4,1.3-1.2,2.3-2.3,2.9-1.2.7-2.7.8-4.5.6.7.6,1.5,2.6,2.5,5.6.8,2.5,1.5,4.1,2.1,4.9.6.8,1.4,1.4,2.4,1.8,0,.2-.1.4-.2.6ZM330.5,396.7c.7.2,1.4.3,2.2.5.7.2,1.4.2,2,.2.6,0,1.1-.2,1.5-.4.4-.2.8-.6,1.2-1.1.3-.5.6-1.2.8-2,.4-1.4.3-2.6-.2-3.6-.5-1-1.9-1.9-4.2-2.5-.4-.1-.8-.2-1.2-.3-.7,3.1-1.4,6.2-2.1,9.2Z" class="st5"></path>
      <path d="M350.9,403.9c3-1.3,4.6-1.9,7.7-3,1.8-.6,2.8-1.2,3-1.7.3-.7-.3-1.4-1.6-2,0-.2.1-.4.2-.6,2.9,1.2,4.4,1.8,7.3,3,0,.2-.1.3-.2.6-.6-.2-1.2-.4-1.9-.4-.7,0-1.4,0-2,.2-.6.2-1.9.6-3.7,1.2-1.9.7-2.8,1.1-4.7,1.8,1.3,3.3,2.6,6.6,3.9,9.9.8,2.2,1.5,3.5,1.8,4.1.4.5,1,1,1.8,1.3-.1.2-.1.4-.2.6-3-1.3-6.1-2.5-9.1-3.7,0-.2.1-.4.2-.6.1,0,.2,0,.3.1,1,.4,1.6.5,1.9.5.3,0,.5-.2.6-.5.1-.4-.2-1.4-.9-3.3-1.2-2.9-1.7-4.4-3-7.4-.7.3-1.1.4-1.8.7-.5,1.4-.8,2.1-1.3,3.5-.5,1.5-.8,2.5-.9,2.9,0,.5,0,.9.2,1.2.2.3.7.6,1.5.9.1,0,.2,0,.3.1,0,.2-.1.4-.2.6-3.1-1.2-4.7-1.8-7.8-2.8,0-.2.1-.4.2-.6.2,0,.3.1.5.2.7.3,1.3.3,1.7.3.4,0,.6-.3.9-.7.2-.4.6-1.4,1.1-3,1.1-3.2,2.2-6.4,3.3-9.6.5-1.6.8-2.6.8-3,0-.5,0-.8-.3-1.1-.3-.3-.9-.6-2-1,0-.2.1-.4.2-.6,2.9,1.1,5.7,2.2,8.6,3.3,0,.2-.1.4-.2.6-.1,0-.2,0-.4-.1-.9-.4-1.6-.6-1.9-.5-.3,0-.6.2-.9.6-.2.4-.6,1.3-1.2,2.9-.7,2-1.1,3-1.8,5Z" class="st5"></path>
    </g>
  </g>
</svg>