<svg xmlns="http://www.w3.org/2000/svg" xmlns:xlink="http://www.w3.org/1999/xlink" viewBox="0 0 720 108.98"><defs><style>.cls-1{fill:none;}.cls-2{clip-path:url(#clip-path);}.cls-3{fill:#f3f3f3;}.cls-4{fill:#ffc600;}</style><clipPath id="clip-path" transform="translate(0 0)"><rect class="cls-1" width="720" height="108.98"/></clipPath></defs><title>RealTruck - Light</title><g id="Layer_2" data-name="Layer 2"><g id="Layer_1-2" data-name="Layer 1"><g id="RealTruck_-_Light" data-name="RealTruck - Light"><g class="cls-2"><g class="cls-2"><path class="cls-3" d="M161.17,69.79v33.29H139.82V7.34h36.29q11.61.07,15.55,3.94t3.93,12.34V46.77a13.18,13.18,0,0,1-7.27,12.35c-1.24.53-1.89,1-1.93,1.46s.69.87,1.93,1.4q7.94,4,7.94,12.35v28.75H174.91V72.33a2.21,2.21,0,0,0-2.47-2.54Zm0-44V51.31h11.27a2.21,2.21,0,0,0,2.47-2.54V28.29a2.21,2.21,0,0,0-2.47-2.53Z" transform="translate(0 0)"/><polygon class="cls-3" points="258.38 7.34 258.38 25.76 231.82 25.76 231.82 45.97 254.64 45.97 254.64 64.39 231.82 64.39 231.82 84.67 258.38 84.67 258.38 103.08 210.4 103.08 210.4 84.67 210.47 84.67 210.47 7.34 258.38 7.34"/><path class="cls-3" d="M282.26,7.34h34l17.35,95.74H312.22L309.08,85H289.4l-3.14,18.08H264.91Zm17,16.28-6.6,43h13.14Z" transform="translate(0 0)"/><polygon class="cls-3" points="342.17 7.34 363.52 7.34 363.52 84.67 387.68 84.67 387.68 103.08 342.17 103.08 342.17 7.34"/><polygon class="cls-3" points="427.11 25.76 427.11 103.08 405.76 103.08 405.76 25.76 388.21 25.76 388.21 7.34 444.65 7.34 444.65 25.76 427.11 25.76"/><path class="cls-3" d="M473.08,69.79v33.29H451.73V7.34H488q11.61.07,15.55,3.94t3.93,12.34V46.77a13.18,13.18,0,0,1-7.27,12.35c-1.25.53-1.89,1-1.93,1.46s.68.87,1.93,1.4q7.93,4,7.94,12.35v28.75H486.82V72.33a2.21,2.21,0,0,0-2.47-2.54Zm0-44V51.31h11.27a2.21,2.21,0,0,0,2.47-2.54V28.29a2.21,2.21,0,0,0-2.47-2.53Z" transform="translate(0 0)"/><path class="cls-3" d="M556.87,7.34h21.35V86.8q0,8.34-3.93,12.35t-15.55,3.93H541.26q-11.61-.06-15.54-3.93T521.78,86.8V7.34h21.35V82.13c0,1.69.8,2.54,2.4,2.54h8.88a2.21,2.21,0,0,0,2.46-2.54Z" transform="translate(0 0)"/><path class="cls-3" d="M647.74,43.77h-20V28.29a2.21,2.21,0,0,0-2.47-2.53h-8.87c-1.61,0-2.41.84-2.41,2.53V82.13c0,1.69.8,2.54,2.41,2.54h8.87a2.21,2.21,0,0,0,2.47-2.54V66.65h20V86.8q0,8.34-3.93,12.35t-15.55,3.93H612.12q-11.61-.06-15.55-3.93T592.64,86.8V23.62q0-8.34,3.93-12.34t15.55-3.94h16.14q11.61.07,15.55,3.94t3.93,12.34Z" transform="translate(0 0)"/><polygon class="cls-3" points="682.24 60.52 682.24 103.08 660.89 103.08 660.89 7.34 682.24 7.34 682.24 47.77 697.05 7.34 718.66 7.34 701.32 54.24 720 103.08 698.38 103.08 682.24 60.52"/><path class="cls-4" d="M84.7,69.45h30.49V34.66A34.64,34.64,0,0,0,80.57,0H12.75L0,0,18.07,22.9H80.34A11.54,11.54,0,0,1,91.9,34.44V46.17H36.61l49,62.77,30,0Z" transform="translate(0 0)"/></g></g></g></g></g></svg>
